<?xml version="1.0" standalone="no"?>
<!DOCTYPE svg PUBLIC "-//W3C//DTD SVG 20010904//EN"
 "http://www.w3.org/TR/2001/REC-SVG-20010904/DTD/svg10.dtd">
<svg version="1.0" xmlns="http://www.w3.org/2000/svg"
 width="512.000000pt" height="512.000000pt" viewBox="0 0 512.000000 512.000000"
 preserveAspectRatio="xMidYMid meet">
<metadata>
Created by potrace 1.14, written by Peter Selinger 2001-2017
</metadata>
<g transform="translate(0.000000,512.000000) scale(0.100000,-0.100000)"
fill="#000000" stroke="none">
<path d="M309 5116 c-2 -3 -17 -7 -32 -10 -74 -13 -171 -85 -220 -163 -57 -90
-57 -98 -55 -698 l3 -550 27 -57 c47 -101 136 -179 238 -209 62 -18 1709 -22
1785 -4 141 33 248 139 280 280 18 74 14 1083 -4 1145 -33 116 -120 206 -243
251 -48 17 -96 18 -913 19 -474 0 -863 -2 -866 -4z"/>
<path d="M3057 5109 c-122 -29 -232 -135 -268 -259 -20 -68 -23 -2338 -3
-2427 31 -142 144 -251 289 -281 32 -6 358 -9 900 -8 l850 2 58 24 c79 32 167
116 204 195 l28 60 3 1189 c2 1061 1 1195 -13 1244 -36 121 -121 210 -240 251
-59 20 -80 20 -915 20 -470 -1 -872 -5 -893 -10z"/>
<path d="M287 2974 c-111 -26 -204 -104 -255 -212 l-27 -57 -2 -1195 c-2
-1183 -2 -1196 18 -1255 36 -105 103 -176 214 -227 l50 -23 890 0 890 0 67 33
c82 40 158 121 190 202 l22 55 2 1170 c1 757 -2 1188 -8 1220 -29 144 -137
256 -277 289 -87 20 -1687 20 -1774 0z"/>
<path d="M3065 1696 c-117 -28 -204 -100 -258 -214 l-32 -67 -1 -540 c0 -297
3 -558 8 -580 25 -111 108 -213 216 -263 l57 -27 890 0 890 0 59 27 c102 48
167 118 205 221 20 56 21 68 18 615 l-2 557 -33 67 c-41 83 -119 158 -200 189
l-57 23 -855 2 c-631 1 -868 -2 -905 -10z"/>
</g>
</svg>
